<svg width="16" height="20" viewBox="0 0 16 20" fill="none" xmlns="http://www.w3.org/2000/svg">
<path d="M9.66671 1.89128V5.3334C9.66671 5.8001 9.66671 6.03346 9.75754 6.21172C9.83743 6.36852 9.96491 6.496 10.1217 6.5759C10.3 6.66673 10.5333 6.66673 11 6.66673H14.4422M8.00004 15V10M5.50004 12.5H10.5M9.66671 1.66667H5.33337C3.93324 1.66667 3.23318 1.66667 2.6984 1.93915C2.22799 2.17884 1.84554 2.56129 1.60586 3.03169C1.33337 3.56647 1.33337 4.26654 1.33337 5.66667V14.3333C1.33337 15.7335 1.33337 16.4335 1.60586 16.9683C1.84554 17.4387 2.22799 17.8212 2.6984 18.0609C3.23318 18.3333 3.93324 18.3333 5.33337 18.3333H10.6667C12.0668 18.3333 12.7669 18.3333 13.3017 18.0609C13.7721 17.8212 14.1545 17.4387 14.3942 16.9683C14.6667 16.4335 14.6667 15.7335 14.6667 14.3333V6.66667L9.66671 1.66667Z" stroke="white" stroke-width="1.5" stroke-linecap="round" stroke-linejoin="round"/>
</svg>
