<svg width="48" height="60" viewBox="0 0 48 60" fill="none" xmlns="http://www.w3.org/2000/svg">
<g clip-path="url(#clip0_6405_7662)">
<path d="M0 0V43.9286C0 51.8571 4.54286 54.5571 12 54.8571C22.2857 55.2857 24 60 24 60C24 60 25.7143 55.2857 36 54.8571C43.4571 54.5571 48 51.8571 48 43.9286V0H0ZM43.7143 50.9143C42.0857 52.2429 39.5571 52.9714 35.9143 53.1429C29.1857 53.4429 25.7143 55.4571 24 57.1286C22.2857 55.4571 18.8143 53.4 12.0857 53.1429C8.48571 53.0143 5.91428 52.2857 4.28571 50.9143C3.72857 50.4429 3.25714 49.8857 2.87143 49.2C13.7571 47.3143 24.5143 47.4429 24.5143 47.4429C24.6 47.0571 24.6429 46.5429 24.8571 46.0714C25.1571 45.3 26.1428 44.2714 27.9 44.2714L29.5286 44.4C29.5286 42.4714 30.4286 40.7571 31.8 39.6C31.8857 39.5143 31.9714 39.4286 31.9714 39.4286C31.1143 39.4714 30.5571 39.3429 30.5571 39.3429C28.7143 39.1714 27.9857 37.3286 27.2143 34.9714C26.9571 34.1571 26.7 33.3 26.3571 32.4429C25.2857 28.9286 21.3857 28.5429 20.5714 29.1429C17.0143 26.7429 13.9286 29.1857 13.5 30.0857C13.9714 30.0857 14.3571 30.4714 14.3571 30.9429C14.3571 31.2857 14.1857 31.5429 13.9286 31.6714L13.3286 32.0571C13.0286 32.2714 12.8143 32.6143 12.8143 33L9.94285 35.3571C9.77143 35.4857 9.64285 35.8286 9.81428 36.1286L11.3143 37.5429C11.3571 37.0714 11.3571 36.6429 12.0857 36.3857C13.4143 36 13.7571 36.5571 13.8857 36.9429C13.9714 37.2429 13.9714 37.5 13.8857 37.7571H13.8C13.3714 37.5 12.8571 37.3714 12.2571 37.5429C11.7 37.7143 11.3143 38.1429 11.0143 38.2714C10.7143 38.4429 10.3714 38.4857 10.1571 38.4C10.0714 38.3571 9.94285 38.2714 9.9 38.1C9.85714 37.8857 9.85714 37.6286 9.85714 37.3714C9.64285 37.5 9.47143 37.7143 9.38571 38.0571C9.3 38.3571 9.42857 38.7429 9.68571 39C9.94285 39.2571 10.3286 39.3429 10.6286 39.3429C10.9286 39.3429 11.2286 39.2143 11.4857 39.0429C11.5286 39 11.5286 39 11.5714 38.9571C11.5714 39.0857 11.5714 39.2571 11.5714 39.4286C11.5714 40.0286 11.8714 40.4143 12.2143 40.5857C12.3429 40.6714 12.5571 40.5429 12.5571 40.3286C12.5571 39.3857 13.0714 39.2143 13.8857 38.9143C14.5286 38.7 15.5571 38.3143 16.1143 38.1C16.2429 38.0571 16.5429 37.9286 16.5429 37.9286C17.1429 37.6286 17.6571 37.2 18.0429 36.6429C18.5571 35.6571 18.6429 35.1 18.6429 35.1C18.6857 34.7143 18.6429 34.5 18.6429 34.5C19.5 34.5 19.7571 35.1429 19.7143 35.6571C19.5 37.0714 18.6 37.9286 17.4857 39C17.0571 39.4286 16.4571 39.9 16.1571 40.3286C15.1286 41.7857 14.9571 43.4571 17.2714 44.8286C17.3571 44.8714 17.5714 45.0429 17.6571 45.1714C18.3 45.9429 17.7 46.5857 17.3143 46.5857C16.8 45.7714 16.3286 45.6857 16.0714 45.5571C15.3429 45.2571 14.4 45.0429 13.9286 44.1429C12.9857 44.7 12.2571 44.9571 10.7143 44.9571H7.02857C5.95714 44.9571 4.97143 45.7286 4.88571 46.7143C4.84286 46.9286 4.88571 47.5286 4.88571 47.5286C3.98571 47.6143 3.08571 47.7429 2.22857 47.8714C1.84286 46.7571 1.67143 45.4286 1.67143 43.8857V1.71429H46.2428V43.9286C46.2428 45.4714 46.0286 46.8 45.6857 47.9143C44.1857 47.7 42.9 47.5286 41.3571 47.3571C41.3571 47.3571 41.6143 46.8857 41.9143 45.9857C41.9143 45.9857 42.8571 45.6857 43.4571 45.0429C43.8857 44.5714 44.2286 44.0571 44.4428 43.5857C44.5714 43.2857 44.7 42.9857 44.7428 42.6429C44.8286 42.0857 44.7428 41.4429 44.5286 40.7571C43.9286 39.2143 42.7714 38.0143 41.0571 37.2429C39.7286 36.6429 36.5571 36.3857 36.1286 36.3857C32.2286 36.2143 31.2428 35.5286 31.2428 35.5286L31.2 35.4857C30.7286 35.1429 30.4286 34.5857 30.4286 33.9857C30.4286 32.9571 31.2428 32.1429 32.3143 32.1429C32.3571 32.1429 33 32.1 33.8571 32.8286C33.9 34.4143 35.1857 35.6571 36.7286 35.6571C38.3143 35.6571 39.6 34.3714 39.6 32.7857C39.6 32.0143 39.3 31.3286 38.7857 30.7714C38.7857 30.8571 38.8286 30.9857 38.8286 31.0714C38.8286 32.2286 37.8857 33.1714 36.7286 33.1714C36.1286 33.1714 35.5714 32.9143 35.1857 32.5286C35.1857 32.5286 35.1 32.4429 34.9714 32.3571C33.6857 31.0286 32.4857 30.9857 32.2286 31.0286C30.6 31.0286 29.2286 32.4 29.2286 34.0286C29.2286 34.9714 29.7 35.8714 30.4714 36.4714C30.7286 36.6857 31.9286 37.4143 36.0857 37.6286C36.7286 37.6714 39.5571 37.9286 40.5857 38.4C41.9571 39.0429 42.9428 40.0286 43.4143 41.2714C43.6714 42.0857 43.6714 42.7286 43.3714 43.2429C43.2857 43.3714 43.2 43.4571 43.1143 43.5857C42.9857 43.7143 42.8143 43.7571 42.6428 43.7571C42.3857 43.7571 42.1714 43.6286 42.0428 43.4571C42 43.4143 41.9571 43.2857 41.9571 43.2857C41.7 42.7286 41.3571 42.0857 40.9714 41.4857C40.3714 40.5857 39.5571 39.8571 38.5286 39.3857C38.4857 39.3429 38.4428 39.3429 38.4 39.3C37.8857 39.0857 37.3286 38.9143 36.7714 38.8286H36.7286C36.5143 38.7857 36.2571 38.7857 36 38.7857H35.7428C33.3428 38.7857 31.3714 40.7143 31.3714 43.1143C31.3714 43.1143 31.3714 43.1143 31.3714 43.1571C31.3714 43.2 31.3714 43.2857 31.4143 43.3286C31.5 44.4 32.4 45.2571 33.5143 45.2571C33.5143 45.2571 33.9 45.2571 36.1286 45.2571C37.0714 45.2571 37.1571 46.1143 37.1571 46.1143C32.3143 46.6714 30.2571 45.7286 28.1571 45.7286C27.4714 45.7286 26.8714 46.1143 26.5286 46.6714C26.5286 46.6714 26.3143 47.0571 26.3143 47.4C26.3143 47.4857 26.3143 47.6143 26.3143 47.6143C26.3143 47.6143 35.5286 47.8286 45.2143 49.3286H45.2571C44.7428 49.8857 44.2714 50.4429 43.7143 50.9143Z" fill="#2970FF"/>
<path d="M30.9428 21C31.1143 20.5286 31.1143 20.3143 30.6428 19.7571C31.2 19.5429 31.4143 20.2714 31.4143 20.2714C31.5428 19.8857 31.5 19.5429 31.4571 19.3286C31.3286 18.7714 30.6 18.6429 29.9571 19.1143C29.6143 19.3714 29.3571 19.9286 28.9714 20.0571C28.7571 20.1 27.3428 19.6714 27.3428 19.6714C27.6 19.2857 27.9857 18.8571 27.9857 18.3C28.0286 17.7429 27.4714 16.8429 26.6143 16.8C26.4 16.8 26.1857 16.8429 26.0571 16.8857C26.0571 16.8429 26.1 16.8 26.1 16.7571C26.1857 16.5 26.4 16.0714 26.5286 15.6857C28.2857 16.5429 30.6857 16.8 32.7857 15.9857L32.5286 15.1714C34.1571 15.6429 34.9714 15.5571 35.8286 15.4714L34.5428 14.2714C37.8 14.6571 38.7428 14.2714 39.7714 13.5L36.1714 12.2571C39.6428 12.2571 41.4857 11.1 42.9857 9.25714L37.6286 9.89999C42 8.87142 43.9714 6.64285 44.1857 4.02856C39.2143 8.27142 31.3714 8.01428 29.4857 8.01428C28.9286 8.01428 28.2857 8.52857 28.2857 9.08571C28.2857 9.98571 29.1 10.2429 29.1 11.4429C29.1 12.0429 28.5428 12.6 27.9 12.7714L27.0428 12.2143C27.1714 9.89999 26.9571 8.35714 25.9714 8.14285C25.9714 8.14285 27.1714 7.71428 27.0428 6.59999C25.8857 7.07142 25.2857 6.94285 24 6.94285C21.3 6.94285 21.3 8.57142 21.3857 8.95714C21.6857 8.74285 22.0286 8.61428 22.5428 8.61428C22.9714 8.61428 23.2286 9.17142 23.2286 9.55714C23.2286 10.9286 21.9 11.3571 21.0857 12.2571C20.9571 12.3857 20.7857 12.6429 20.7857 12.6429C20.0571 12.6 19.3286 11.9571 19.3286 11.2714C19.3286 10.0714 20.1 9.85714 20.1 8.99999C20.1 8.44285 19.4571 7.84285 18.9429 7.92857C16.3286 8.44285 8.18571 7.24285 4.75714 4.07142C4.97143 6.55714 7.11428 8.65714 11.3571 9.68571L5.91428 9.08571C7.37143 10.8857 9.17143 11.9571 12.5143 11.9571L9 13.3714C9.98571 14.1429 10.9286 14.5286 14.0571 14.1429L12.8143 15.3C13.6286 15.3857 14.4 15.4714 15.9857 15L15.7714 15.7714C17.7 16.5429 19.6714 16.5 21.6 15.6429C21.7286 16.0286 21.9429 16.4571 22.0714 16.7571C22.0714 16.8 22.1143 16.8429 22.1143 16.8857C21.9857 16.8429 21.8143 16.8 21.6 16.8C20.7857 16.8429 20.2286 17.7 20.2286 18.3C20.2714 18.8571 20.6143 19.2857 20.8714 19.6714C20.8714 19.6714 19.4571 20.1 19.2429 20.0571C18.8571 19.9286 18.6 19.4143 18.2571 19.1143C17.6143 18.6429 16.8857 18.8143 16.7571 19.3286C16.7143 19.5429 16.6714 19.8857 16.8 20.2714C16.8 20.2714 17.0571 19.5429 17.5714 19.7571C17.1429 20.2714 17.1429 20.5286 17.3143 21C17.6571 20.3143 18.6 20.2714 19.2857 20.7C20.3143 21.3429 20.1 21.7714 19.7571 22.4143C20.7857 22.0714 20.9143 21.7286 20.3143 20.5286L21.7714 19.9714C21.8571 19.9286 21.9429 19.8 21.9 19.7143C21.8143 19.3714 21.6857 18.6857 22.4143 18.6429C22.7571 18.6429 22.9286 18.9 23.0143 19.2C23.0571 19.4571 23.1 19.7143 23.1 20.0143C23.1 21.6429 21.6428 23.0143 21.1286 23.3143C21.8571 23.7 22.5857 23.7 23.3143 23.1857C23.4857 23.7857 23.6571 24.1286 24.1286 24.4714C24.6 24.0857 24.8143 23.7857 24.9857 23.1857C25.7571 23.7 26.4 23.7429 27.1714 23.3143C26.6571 23.0143 25.2 21.6429 25.2 20.0143C25.2 19.8429 25.2 19.6714 25.2428 19.5C25.3286 19.0714 25.4571 18.5571 25.9286 18.6C26.6571 18.6429 26.5286 19.3286 26.4428 19.6714C26.4 19.7571 26.4428 19.8857 26.5714 19.9286L28.0286 20.4857C27.4286 21.6857 27.5571 21.9857 28.5857 22.3714C28.2428 21.7286 28.0286 21.3 29.0571 20.6571C29.6571 20.2714 30.6 20.3143 30.9428 21Z" fill="#2970FF"/>
</g>
<defs>
<clipPath id="clip0_6405_7662">
<rect width="48" height="60" fill="white"/>
</clipPath>
</defs>
</svg>
