<svg width="174" height="40" viewBox="0 0 174 40" fill="none" xmlns="http://www.w3.org/2000/svg">
<g clip-path="url(#clip0_10129_56208)">
<path d="M40 40H0V13.3333L20 0L40 13.3333V40Z" fill="white"/>
<path d="M84.4 21.672C82.2945 19.9248 79.0278 19.0498 74.6028 19.0498H63.3167V14.1498H85.225V6.66642H53.3334V39.9998H74.5334C78.9278 39.9998 82.2 39.0498 84.3445 37.1498C86.4889 35.2498 87.5611 32.5914 87.5611 29.172C87.5611 25.7525 86.5084 23.422 84.4028 21.6748L84.4 21.672ZM76.3639 32.5109C75.5389 33.2442 74.1056 33.6109 72.0612 33.6109H63.3167V25.0025H72.0612C74.1056 25.0025 75.5417 25.3886 76.3639 26.1581C77.1889 26.9275 77.6 27.9775 77.6 29.3053C77.6 30.7109 77.1889 31.7775 76.3639 32.5109Z" fill="white"/>
<path d="M102.256 26.0112C101.967 26.3917 101.761 26.6862 101.636 26.8917C101.514 27.0973 101.4 27.2834 101.292 27.4528H101.2V25.6667L101.222 6.66396H91.2167V39.9973H102.114L116.583 20.3306C116.858 19.9334 117.061 19.6223 117.189 19.3917C117.319 19.164 117.436 18.9417 117.544 18.7278H117.636C117.636 18.9556 117.633 19.1723 117.625 19.3695C117.617 19.5667 117.614 19.9195 117.614 20.4223L117.592 39.9973H127.572V6.66673H116.675L102.253 26.0112H102.256Z" fill="white"/>
<path d="M160.192 40.0001H173.333L155.658 22.3612L172.097 6.66673H159.458L146.822 18.914H143.228V6.66673H133.247V40.0001H143.228V26.9501H146.989L160.192 40.0001Z" fill="white"/>
</g>
<defs>
<clipPath id="clip0_10129_56208">
<rect width="173.333" height="40" fill="white"/>
</clipPath>
</defs>
</svg>
