<svg width="139" height="32" viewBox="0 0 139 32" fill="none" xmlns="http://www.w3.org/2000/svg">
<path d="M32 32H0V10.6667L16 0L32 10.6667V32Z" fill="url(#paint0_linear_10205_1811)"/>
<path d="M67.52 17.3376C65.8355 15.9398 63.2222 15.2398 59.6822 15.2398H50.6533V11.3198H68.18V5.33314H42.6667V31.9998H59.6267C63.1422 31.9998 65.76 31.2398 67.4755 29.7198C69.1911 28.1998 70.0489 26.0731 70.0489 23.3376C70.0489 20.602 69.2067 18.7376 67.5222 17.3398L67.52 17.3376ZM61.0911 26.0087C60.4311 26.5954 59.2844 26.8887 57.6489 26.8887H50.6533V20.002H57.6489C59.2844 20.002 60.4333 20.3109 61.0911 20.9265C61.7511 21.542 62.08 22.382 62.08 23.4443C62.08 24.5687 61.7511 25.422 61.0911 26.0087Z" fill="#2C2D2E"/>
<path d="M81.8044 20.8089C81.5733 21.1134 81.4089 21.3489 81.3089 21.5134C81.2111 21.6778 81.12 21.8267 81.0333 21.9623H80.96V20.5334L80.9778 5.33116H72.9733V31.9978H81.6911L93.2667 16.2645C93.4867 15.9467 93.6489 15.6978 93.7511 15.5134C93.8555 15.3312 93.9489 15.1534 94.0355 14.9823H94.1089C94.1089 15.1645 94.1067 15.3378 94.1 15.4956C94.0933 15.6534 94.0911 15.9356 94.0911 16.3378L94.0733 31.9978H102.058V5.33338H93.34L81.8022 20.8089H81.8044Z" fill="#2C2D2E"/>
<path d="M128.153 32H138.667L124.527 17.8889L137.678 5.33338H127.567L117.458 15.1312H114.582V5.33338H106.598V32H114.582V21.56H117.591L128.153 32Z" fill="#2C2D2E"/>
<defs>
<linearGradient id="paint0_linear_10205_1811" x1="0" y1="0" x2="32" y2="32" gradientUnits="userSpaceOnUse">
<stop stop-color="#00CCCC"/>
<stop offset="0.0666667" stop-color="#00CBCC"/>
<stop offset="0.133333" stop-color="#00CACC"/>
<stop offset="0.2" stop-color="#00C6CC"/>
<stop offset="0.266667" stop-color="#00C2CC"/>
<stop offset="0.333333" stop-color="#00BCCC"/>
<stop offset="0.4" stop-color="#00B5CC"/>
<stop offset="0.466667" stop-color="#00AECC"/>
<stop offset="0.533333" stop-color="#00A6CC"/>
<stop offset="0.6" stop-color="#009FCC"/>
<stop offset="0.666667" stop-color="#0098CC"/>
<stop offset="0.733333" stop-color="#0092CC"/>
<stop offset="0.8" stop-color="#008ECC"/>
<stop offset="0.866667" stop-color="#008ACC"/>
<stop offset="0.933333" stop-color="#0089CC"/>
<stop offset="1" stop-color="#0088CC"/>
</linearGradient>
</defs>
</svg>
